<?xml version="1.0" encoding="utf-8"?>
<!-- Generator: Adobe Illustrator 19.0.0, SVG Export Plug-In . SVG Version: 6.00 Build 0)  -->
<svg version="1.1" id="layer" xmlns="http://www.w3.org/2000/svg" xmlns:xlink="http://www.w3.org/1999/xlink" x="0px" y="0px"
	 viewBox="-153 -46 652 652" style="enable-background:new -153 -46 652 652;" xml:space="preserve">
<style type="text/css">
	.st0{fill:#F16522;}
</style>
<path class="st0" d="M326.3,400.6H9.7c-16.2,0-29.9-12.9-29.9-29.9V54.8C-20.2,38.7-7.3,25,9.7,25h316.6c16.2,0,29.9,12.9,29.9,29.9
	v316.6C356.2,387.6,342.5,400.6,326.3,400.6z"/>
<path d="M4,453.1c-5.7,0-10.5,1.6-13.7,4c-1.6,1.6-3.2,3.2-4,4.8v-27.5h-6.5v72.7h5.7v-8.1c1.6,2.4,2.4,4,4.8,4.8
	c4,3.2,8.1,4.8,13.7,4.8c7.3,0,12.9-2.4,17-8.1c4-4.8,6.5-12.1,6.5-20.2S25,466,21.8,461.1C16.9,456.3,11.3,453.1,4,453.1z M4,503.1
	c-5.7,0-10.5-1.6-13.7-6.5c-3.2-4-4.8-9.7-4.8-16.2c0-7.3,1.6-12.9,4.8-17c3.2-4,8.1-5.7,13.7-5.7s9.7,2.4,12.9,6.5
	c3.2,4.8,4.8,9.7,4.8,16.2c0,6.5-1.6,12.1-4.8,16.2C13.7,501.5,9.7,503.1,4,503.1z M71.1,501.5v-0.8v-31.5c0-5.7-1.6-9.7-5.7-12.1
	c-3.2-2.4-7.3-3.2-12.9-3.2c-6.5,0-11.3,1.6-15.3,4.8s-5.7,8.1-5.7,12.9v1.6h5.7v-1.6c0-4,1.6-7.3,4-9.7c2.4-2.4,6.5-3.2,11.3-3.2
	c5.7,0,8.9,0.8,10.5,3.2c1.6,2.4,2.4,4.8,2.4,8.9c0,4-1.6,4.8-3.2,4.8c-2.4,0.8-7.3,1.6-14.5,1.6c-5.7,0-9.7,0.8-12.9,3.2
	c-4,2.4-5.7,6.5-5.7,12.9c0,4.8,1.6,8.9,4.8,11.3c3.2,2.4,8.1,4,12.9,4s9.7-1.6,13.7-4c1.6-0.8,3.2-2.4,4.8-4l0,0
	c0,2.4,0.8,4,1.6,4.8c1.6,0.8,3.2,1.6,6.5,1.6h3.2v-4.8h-4C71.9,502.3,71.9,502.3,71.1,501.5z M38,484.6c2.4-1.6,5.7-2.4,10.5-2.4
	c6.5,0,11.3,0,14.5-0.8c1.6,0,2.4-0.8,3.2-0.8v4.8c0,4.8-1.6,8.9-4.8,12.1c-3.2,3.2-8.1,4.8-13.7,4.8c-4.8,0-8.1-0.8-9.7-3.2
	c-1.6-1.6-3.2-4-3.2-7.3C33.9,489.4,35.5,486.2,38,484.6z M100.1,453.1c-4.8,0-9.7,1.6-12.9,4c-1.6,0.8-2.4,2.4-3.2,3.2v-6.5h-5.7
	v53.3H84v-29.9c0-5.7,1.6-10.5,4-13.7c3.2-3.2,6.5-5.7,12.1-5.7c4,0,7.3,0.8,10.5,4c2.4,2.4,4,5.7,4,10.5v34.7h4.8v-34.7
	c0-6.5-1.6-11.3-5.7-14.5C110.6,454.7,105.8,453.1,100.1,453.1z M164.8,461.9c-0.8-1.6-2.4-3.2-4-4c-4-3.2-8.1-4-12.9-4
	c-7.3,0-12.9,2.4-17,7.3c-4,4.8-5.7,11.3-5.7,18.6c0,7.3,1.6,12.9,5.7,17.8c4,4.8,9.7,7.3,17,7.3c4.8,0,9.7-1.6,13.7-4
	c1.6-1.6,3.2-2.4,4.8-4v7.3c0,5.7-1.6,9.7-4,12.1c-3.2,2.4-7.3,4-12.9,4c-4.8,0-8.1-0.8-11.3-3.2c-2.4-1.6-4-4.8-4-8.9v-1.6h-5.7
	v1.6c0,5.7,2.4,10.5,5.7,12.9c4,2.4,8.9,4,14.5,4c7.3,0,12.9-1.6,16.2-5.7c4-4,5.7-8.9,5.7-16.2v-50.1h-5.7V461.9z M134.1,494.3
	c-3.2-4-4.8-8.9-4.8-14.5c0-5.7,1.6-11.3,4.8-14.5c3.2-4,7.3-5.7,12.9-5.7c5.7,0,9.7,1.6,12.9,5.7c3.2,4,4.8,8.9,4.8,14.5
	c0,5.7-1.6,10.5-4.8,14.5c-3.2,4-7.3,5.7-12.9,5.7C141.3,499.1,137.3,497.5,134.1,494.3z M176.9,435.3h5.7V508h-5.7V435.3z
	 M228.6,501.5v-0.8v-31.5c0-5.7-1.6-9.7-5.7-12.1c-3.2-2.4-7.3-3.2-12.9-3.2c-6.5,0-11.3,1.6-15.3,4.8s-5.7,8.1-5.7,12.9v1.6h5.7
	v-1.6c0-4,1.6-7.3,4-9.7c2.4-2.4,6.5-3.2,11.3-3.2c5.7,0,8.9,0.8,10.5,3.2c1.6,2.4,2.4,4.8,2.4,8.9c0,4-1.6,4.8-3.2,4.8
	c-2.4,0.8-7.3,1.6-14.5,1.6c-5.7,0-9.7,0.8-12.9,3.2c-4,2.4-5.7,7.3-5.7,12.9c0,4.8,1.6,8.9,4.8,11.3c3.2,2.4,8.1,4,12.9,4
	s9.7-1.6,13.7-4c1.6-0.8,3.2-2.4,4.8-4l0,0c0,2.4,0.8,4,1.6,4.8c1.6,0.8,3.2,1.6,6.5,1.6h3.2v-4.8h-4
	C230.2,502.3,229.4,502.3,228.6,501.5z M195.5,484.6c2.4-1.6,5.7-2.4,10.5-2.4c6.5,0,11.3,0,14.5-0.8c1.6,0,2.4-0.8,3.2-0.8v4.8
	c0,4.8-1.6,8.9-4.8,12.1c-3.2,3.2-8.1,4.8-13.7,4.8c-4.8,0-8.1-0.8-9.7-3.2c-2.4-0.8-3.2-2.4-3.2-5.7
	C192.2,489.4,193,486.2,195.5,484.6z M236.7,435.3h5.7V508h-5.7V435.3z M248.8,435.3h5.7v12.9h-5.7V435.3z M248.8,454.7h5.7V508
	h-5.7V454.7z M283.5,453.1c-4.8,0-9.7,1.6-12.9,4c-1.6,0.8-2.4,2.4-3.2,3.2v-6.5h-5.7v53.3h5.7v-29.9c0-5.7,1.6-10.5,4-13.7
	c3.2-3.2,6.5-5.7,12.1-5.7c4,0,7.3,0.8,10.5,4c2.4,2.4,4,5.7,4,10.5v34.7h5.7v-34.7c0-6.5-1.6-11.3-5.7-14.5
	C294,454.7,289.2,453.1,283.5,453.1z M330.4,474.9l25-20.2l-8.1-0.8L315,480.5v-45.2h-4.8v71.9h4.8v-19.4l11.3-8.9l22.6,28.3h7.3
	L330.4,474.9z"/>
<path d="M220.5,381.2c51.7-59.8,80.8-129.2,95.3-206c1.6-9.7-1.6-19.4-2.4-29.9c-1.6,0-3.2-0.8-4.8-0.8c-3.2,4-6.5,8.1-9.7,12.1
	c-1.6,1.6-1.6,4-2.4,5.7c-12.9,42.8-31.5,81.6-61.4,117.1c-20.2,23.4-32.3,54.1-46,82.4c-10.5,20.2-10.5,21.8-35.5,18.6
	c7.3-16.2,13.7-32.3,22.6-46.8c22.6-36.3,47.7-71.1,71.1-107.4c10.5-17,17.8-35.5,27.5-52.5c8.1-13.7,19.4-25,26.7-38.8
	c7.3-12.9,12.9-27.5,17.8-41.2c4-12.1,6.5-25,8.9-38c1.6,0,3.2,0.8,5.7,0.8c-2.4,13.7-5.7,27.5-7.3,42c-2.4,15.3-3.2,31.5-4.8,46.8
	c-0.8,8.1-3.2,17.8,10.5,21.8c2.4,0.8,4,12.1,3.2,17c-8.9,33.1-17,67-29.1,99.4c-7.3,19.4-20.2,37.2-30.7,55.7
	c-4,6.5-8.1,12.1-11.3,19.4C251.2,385.2,250.4,386,220.5,381.2z M202.7,44.3c6.5,14.5-0.8,21.8-6.5,29.9
	c-19.4,26.7-40.4,52.5-56.5,81.6c-14.5,25.8-25.8,53.3-35.5,81.6c-8.9,27.5-22.6,52.5-39.6,75.9c-13.7,18.6-26.7,38-40.4,56.5
	c-3.2,4.8-7.3,8.9-10.5,12.9c-1.6-0.8-2.4-0.8-4-1.6c0-5.7-0.8-11.3,0.8-16.2c7.3-17.8,13.7-36.3,22.6-53.3
	c13.7-25,18.6-50.9,14.5-79.2c-5.7-38-0.8-75.1,8.1-111.5c2.4-11.3,3.2-23.4,4.8-37.2C33.1,93.6,21.8,117,0.8,134.8
	c-2.4-15.3-4.8-25.8,8.1-36.3C27.5,83.1,43.6,65.3,62.2,50c4.8-4,12.1-4.8,22.6-8.9c-3.2,12.1-4.8,19.4-6.5,26.7
	c-6.5,30.7-12.9,62.2-17.8,92.9c-2.4,14.5-1.6,29.1-0.8,43.6c0.8,21,3.2,42,5.7,64.6c14.5-1.6,21-11.3,25-23.4
	c11.3-28.3,21.8-57.4,33.9-85.6c15.3-35.5,31.5-70.3,62.2-96.1C193,60.5,196.3,53.2,202.7,44.3z M48.5,379.6
	c4-8.1,7.3-15.3,11.3-22.6c17.8-27.5,39.6-52.5,54.1-81.6c23.4-45.2,55.7-83.2,86.4-122.8c4-5.7,8.1-12.1,8.9-18.6
	c4-22.6,15.3-41.2,31.5-58.2C248.8,67,256,58.1,267.4,50c-4,7.3-7.3,16.2-12.9,21c-19.4,17-28.3,38-34.7,62.2
	c-5.7,20.2-17.8,38-26.7,57.4c-9.7,20.2-19.4,40.4-28.3,60.6c-21,45.2-47.7,86.4-85.6,119.5C71.1,378.7,63,385.2,48.5,379.6z
	 M141.3,342.4c12.1-18.6,30.7-36.3,37.2-57.4c9.7-31.5,26.7-60.6,33.1-90.5c8.9-44.4,33.1-76.7,59.8-109.9
	c7.3-8.9,12.9-19.4,18.6-30.7c4-8.9,10.5-10.5,17.8-7.3c1.6,0.8,0.8,11.3-1.6,14.5C294,79.9,279.5,97.6,267.4,117
	c-11.3,17-20.2,35.5-29.9,54.1c-8.9,16.2-17.8,31.5-25,48.5c-8.9,18.6-17.8,37.2-23.4,57.4C181.7,306.9,164,327.1,141.3,342.4z
	 M138.9,46.8c-17.8,21.8-27.5,44.4-32.3,70.3c-5.7,28.3-17,54.9-25,82.4c-1.6,0-2.4-0.8-4-0.8c1.6-8.9,3.2-17,4.8-25.8
	c8.1-33.9,15.3-68.7,24.2-101.8C112.3,48.4,117.9,45.1,138.9,46.8z M334.4,285.9c8.1,54.9-6.5,94.5-36.3,95.3
	C310.2,348.9,322.3,317.4,334.4,285.9z M32.3,131.6c-2.4,4-4.8,8.9-8.1,12.9c-14.5,18.6-17.8,39.6-17.8,63c0,17-0.8,34.7-1.6,51.7
	c0,2.4-1.6,4.8-4,7.3c1.6-47.7-12.9-97.7,27.5-136.5C29.9,130.8,30.7,130.8,32.3,131.6z M230.2,47.6c-13.7,34.7-21,72.7-49.3,98.5
	c14.5-32.3,29.9-67,45.2-101C227,46,228.6,46.8,230.2,47.6z M1.6,73.4c-2.4-21,1.6-25.8,17.8-26.7C13.7,54.8,8.1,62.9,1.6,73.4z"/>
</svg>
