<?xml version="1.0" encoding="UTF-8" standalone="no"?>
<!-- Generator: Adobe Illustrator 21.0.0, SVG Export Plug-In . SVG Version: 6.00 Build 0)  -->

<svg
   xmlns:dc="http://purl.org/dc/elements/1.1/"
   xmlns:cc="http://creativecommons.org/ns#"
   xmlns:rdf="http://www.w3.org/1999/02/22-rdf-syntax-ns#"
   xmlns:svg="http://www.w3.org/2000/svg"
   xmlns="http://www.w3.org/2000/svg"
   xmlns:sodipodi="http://sodipodi.sourceforge.net/DTD/sodipodi-0.dtd"
   xmlns:inkscape="http://www.inkscape.org/namespaces/inkscape"
   version="1.1"
   id="Layer_1"
   x="0px"
   y="0px"
   viewBox="0 0 300 131.03339"
   xml:space="preserve"
   sodipodi:docname="Nagad Logo 2019.svg"
   width="300"
   height="131.0334"
   inkscape:version="0.92.4 (5da689c313, 2019-01-14)"><metadata
   id="metadata1456"><rdf:RDF><cc:Work
       rdf:about=""><dc:format>image/svg+xml</dc:format><dc:type
         rdf:resource="http://purl.org/dc/dcmitype/StillImage" /><dc:title></dc:title></cc:Work></rdf:RDF></metadata><defs
   id="defs1454" /><sodipodi:namedview
   pagecolor="#ffffff"
   bordercolor="#666666"
   borderopacity="1"
   objecttolerance="10"
   gridtolerance="10"
   guidetolerance="10"
   inkscape:pageopacity="0"
   inkscape:pageshadow="2"
   inkscape:window-width="1366"
   inkscape:window-height="705"
   id="namedview1452"
   showgrid="false"
   inkscape:zoom="1.8101934"
   inkscape:cx="105.93355"
   inkscape:cy="33.742072"
   inkscape:window-x="-8"
   inkscape:window-y="-8"
   inkscape:window-maximized="1"
   inkscape:current-layer="Layer_1" />
<style
   type="text/css"
   id="style1431">
	.st0{fill:#EB2329;}
	.st1{fill:#F89621;}
</style>

<style
   id="style1431-6"
   type="text/css">
	.st0{fill:#EB2329;}
	.st1{fill:#F89621;}
</style><style
   id="style1384"
   type="text/css"> .st0{fill:#ED1C24;} .st1{fill:#F7941D;} </style><g
   id="g1438"
   transform="matrix(2.5947207,0,0,2.5947207,-1266.1935,-110.29467)"><g
     transform="translate(481.98836,41.407337)"
     id="g1406"> <g
   id="g1390"> <path
   style="fill:#ed1c24"
   inkscape:connector-curvature="0"
   class="st0"
   d="M 80.6,20.7 H 60.4 c -0.4,0 -0.6,0.3 -0.6,0.6 v 1.6 c 0,0.4 0.3,0.6 0.6,0.6 h 15.1 v 8.4 c -0.4,-0.6 -0.9,-1.2 -1.4,-1.8 -1.8,-1.8 -3.7,-2.7 -5.7,-2.7 -1.6,0 -2.9,0.8 -4,2.2 -0.9,1.2 -1.4,2.6 -1.4,3.9 0,1.3 0.2,3 1.2,4.6 1.2,1.9 3.2,2.5 5,2.5 2.3,0 4.2,-1.6 4.2,-3.7 0,-1.2 -0.6,-2.2 -1.7,-2.9 l -1.1,-0.6 v 1.3 c 0,0.1 0,0.2 0,0.3 0,0.1 0,0.2 0,0.2 -0.1,0.5 -0.9,1.2 -1.8,1.2 -0.8,0 -1.5,-0.3 -2,-0.8 -0.3,-0.3 -0.5,-0.9 -0.4,-1.3 0,-0.6 0.2,-1.1 0.6,-1.6 0.5,-0.6 1,-0.9 1.8,-0.9 2,0 3.7,0.9 5.1,2.9 1.1,1.7 1.7,3.3 1.7,5.1 V 44 l 3,1.8 c 0.1,0.1 0.2,0.1 0.3,0.1 0.4,0 0.6,-0.3 0.6,-0.6 v 0 -21.7 h 1.2 c 0.4,0 0.6,-0.3 0.6,-0.6 V 21.4 C 81.3,21 81,20.7 80.6,20.7 Z"
   id="path1386" /> <path
   style="fill:#ed1c24"
   inkscape:connector-curvature="0"
   class="st0"
   d="m 121,20.7 h -18 -2.4 -5.2 c -0.4,0 -0.6,0.3 -0.6,0.6 v 0 2.8 c -2.5,-2.6 -4.7,-3.9 -6.7,-3.9 -1.9,0 -3.5,0.4 -4.9,1.5 -1.3,1 -2.1,2.3 -2.1,3.8 0,4.5 5,4.4 6.3,3.8 0.2,-0.1 0.5,-0.3 0.8,-0.3 1,0 1.4,0.8 1.4,1.5 0,1 -1.5,1.9 -3.3,1.9 -1,0 -1.6,-0.3 -2,-0.9 L 83.5,30.3 83,31.7 c -0.1,0.3 -0.3,0.7 -0.3,1.2 0,1 0.5,2 1.5,2.9 0.9,0.8 2,1.2 3.2,1.2 1.9,0 3.5,-0.7 4.5,-2.1 0.9,-1.1 1.3,-2.4 1.3,-3.9 0,-0.8 -0.3,-1.7 -1,-2.7 -0.8,-1.2 -1.8,-1.8 -2.9,-1.8 -0.4,0 -0.9,0.1 -1.4,0.3 -0.2,0.1 -0.6,0.2 -0.7,0.2 -0.2,0 -0.5,-0.1 -0.7,-0.4 -0.2,-0.2 -0.4,-0.5 -0.4,-1 0,-1.1 1,-2.2 2.8,-2.2 0,0 0.1,0 0.1,0 1.2,0 2.4,0.6 3.5,1.7 0.9,0.9 1.6,1.8 2.2,2.8 v 15.9 l 3,1.8 c 0.1,0.1 0.2,0.1 0.3,0.1 0.4,0 0.6,-0.3 0.6,-0.6 v 0 -21.5 h 1.9 2.4 0.3 v 13.9 l 3.6,1.5 c 0.1,0 0.2,0 0.2,0 0.3,0 0.6,-0.2 0.6,-0.6 v -0.1 c 0.6,-4.1 2.4,-6.9 5.4,-8.6 0,0.2 0,0.5 0,0.8 0,0.6 0,2.1 0.1,2.9 0,0.5 0,0.8 0.1,1.1 v 0 c 0,1.6 0.2,4 0.7,5.8 1,3.4 2.7,4.2 3.9,4.2 0,0 0.1,0 0.1,0 0.7,0 1.3,-0.2 1.7,-0.6 0.2,-0.2 0.5,-0.6 0.5,-1.3 0,-0.6 -0.1,-1.1 -0.3,-1.5 l -0.3,-0.5 -0.6,0.1 c -0.6,0.2 -0.9,0.2 -0.9,0.1 h -0.1 c -0.2,0 -0.2,0 -0.3,-0.1 -0.2,-0.1 -0.6,-0.4 -0.9,-1.5 -0.2,-0.8 -0.3,-1.9 -0.3,-2.5 0,-4.5 0.9,-7.9 2.4,-8.6 h 0.1 c 0.2,-0.1 0.4,-0.3 0.4,-0.6 0,-0.1 0,-0.2 -0.1,-0.3 V 27.1 C 118.5,25.7 117,24.7 115,24.2 h -0.2 -0.2 c -1.6,0.3 -3.5,1.4 -5.9,3.4 -0.6,0.5 -1.2,1 -1.7,1.5 v -5.5 h 14 c 0.4,0 0.6,-0.3 0.6,-0.6 v -1.6 c 0.1,-0.4 -0.2,-0.7 -0.6,-0.7 z"
   id="path1388" /> </g> <path
   style="fill:#ed1c24"
   inkscape:connector-curvature="0"
   class="st0"
   d="m 53.2,28.1 c 0,0.7 0,1.3 -0.1,1.9 -0.2,2.8 -0.9,5.4 -2,7.8 -0.4,1 -0.9,1.9 -1.5,2.8 -4.2,6.6 -11.6,11 -20,11 -3.6,0 -7,-0.8 -10,-2.2 C 11.6,45.7 6,37.5 6,28.1 6,18.8 11.4,10.8 19.1,7 c -0.6,0.8 -1.2,1.6 -1.7,2.5 0,0.1 -0.1,0.1 -0.1,0.2 0,0 0,0 0,0 -0.3,0.3 -0.6,0.5 -0.9,0.8 -0.4,0.3 -0.7,0.7 -1.1,1 -0.1,0.1 -0.2,0.2 -0.2,0.2 -0.1,0.1 -0.2,0.2 -0.2,0.2 -0.1,0.1 -0.2,0.3 -0.4,0.4 -0.2,0.3 -0.5,0.6 -0.7,0.9 -1,1.3 -1.8,2.7 -2.4,4.2 -0.1,0.1 -0.1,0.3 -0.2,0.4 -0.1,0.2 -0.1,0.4 -0.2,0.5 0,0.1 -0.1,0.2 -0.1,0.3 -0.1,0.3 -0.2,0.5 -0.3,0.8 -0.1,0.2 -0.1,0.4 -0.2,0.5 0,0.1 -0.1,0.2 -0.1,0.3 0,0.2 -0.1,0.4 -0.1,0.6 -0.1,0.6 -0.2,1.2 -0.3,1.8 0,0.2 0,0.3 -0.1,0.5 0,0.1 0,0.2 0,0.4 0,0.2 0,0.4 0,0.5 0,0 0,0 0,0 0,0.2 0,0.4 0,0.6 0,0.3 0,0.6 0,0.9 0,6.4 2.9,12.2 7.6,15.9 3.6,2.9 8.1,4.7 13,4.7 4.5,0 8.6,-1.4 12,-3.9 2.5,-1.8 4.5,-4.1 6,-6.8 0.2,-0.4 0.4,-0.7 0.6,-1.1 0,0 0,0 0,0 0,0 0,0 0,0 1.2,-2.5 1.9,-5.2 1.9,-8.1 0,-0.2 0,-0.4 0,-0.7 0,-0.7 0,-1.3 -0.1,-2 0,0 0.1,0.1 0.1,0.1 0.3,0.3 0.6,0.5 0.9,0.8 0.3,-0.5 0.6,-0.9 0.9,-1.4 0.2,0.9 0.3,1.8 0.4,2.8 0.1,0.9 0.1,1.6 0.1,2.3 z"
   id="path1392" /> <path
   style="fill:#f7941d"
   inkscape:connector-curvature="0"
   class="st1"
   d="M 32.4,9.2 28,1.1 c -7.3,3.3 -12.3,10.6 -12.3,19.1 0,4.3 1.3,8.3 3.5,11.6 C 19,30.7 19,29.6 19,28.4 19.1,19.7 24.6,12.3 32.4,9.2 Z"
   id="path1394" /> <path
   style="fill:#ed1c24"
   inkscape:connector-curvature="0"
   class="st0"
   d="m 35.9,13.2 c 1.8,-0.5 3.8,-0.7 5.7,-0.7 1.2,0 2.5,0.1 3.6,0.3 L 45.1,9.2 44.9,2 C 44.1,1.9 43.2,1.8 42.3,1.8 c -4,0 -7.7,1.3 -10.7,3.4 L 34,9.6 c -4.3,1.5 -7.8,4.5 -10,8.4 -1.1,1.9 -1.9,4.1 -2.2,6.4 0.6,-1.2 1.3,-2.3 2.1,-3.3 2.9,-3.8 7.1,-6.7 12,-7.9 z"
   id="path1396" /> <path
   style="fill:#f7941d"
   inkscape:connector-curvature="0"
   class="st1"
   d="m 46.4,9.1 0.2,5.1 c -1.7,-0.5 -3.4,-0.8 -5.3,-0.8 -3.5,0 -6.8,1 -9.7,2.7 -3.6,2.2 -6.4,5.7 -7.8,9.8 1.4,-1.9 3.1,-3.6 5.1,-4.9 2.9,-1.9 6.4,-3 10.1,-3 2.8,0 5.4,0.6 7.8,1.7 1.8,0.8 3.4,1.9 4.8,3.3 L 54.4,18.8 58,13.3 C 54.8,10.7 50.8,9.1 46.4,9.1 Z"
   id="path1398" /> <path
   style="fill:#f7941d"
   inkscape:connector-curvature="0"
   class="st1"
   d="m 50.9,25.7 c 0,0.2 0,0.4 0,0.7 0,4.2 -1.7,7.7 -1.9,8.1 0,0 0,0 0,0 0,0 0,0 0,0 -0.2,0.4 -0.4,0.7 -0.6,1.1 -1.5,2.7 -3.5,5 -6,6.8 -3.4,2.4 -7.5,3.9 -12,3.9 -4.9,0 -9.5,-1.7 -13,-4.7 -4.6,-3.8 -7.6,-9.5 -7.6,-15.9 0,-0.3 0,-0.6 0,-0.9 0,-0.2 0,-0.4 0,-0.6 0,0 0,0 0,0 0,-0.2 0,-0.4 0,-0.5 0,-0.1 0,-0.2 0,-0.4 0,-0.2 0,-0.3 0.1,-0.5 0.1,-0.6 0.2,-1.2 0.3,-1.8 0,-0.2 0.1,-0.4 0.1,-0.6 0,-0.1 0.1,-0.2 0.1,-0.3 0.1,-0.2 0.1,-0.4 0.2,-0.5 0.1,-0.3 0.2,-0.6 0.3,-0.8 0,-0.1 0.1,-0.2 0.1,-0.3 0.1,-0.2 0.1,-0.4 0.2,-0.5 0.1,-0.1 0.1,-0.3 0.2,-0.4 0.6,-1.5 1.5,-2.9 2.4,-4.2 0.2,-0.3 0.5,-0.6 0.7,-0.9 0.1,-0.1 0.2,-0.3 0.4,-0.4 0.1,-0.1 0.1,-0.2 0.2,-0.2 0.1,-0.1 0.1,-0.2 0.2,-0.2 0.3,-0.4 0.7,-0.7 1.1,-1 0.3,-0.3 0.6,-0.5 0.9,-0.8 0,0 0,0 0,0 0,0.1 -0.1,0.1 -0.1,0.2 0,0.1 -0.1,0.2 -0.1,0.2 -1.2,2.4 -2,5.3 -2.3,8.3 -0.1,0.8 -0.1,1.6 -0.1,2.5 0,10.8 6.3,19.5 14.1,19.5 0,0 0.1,0 0.1,0 0.2,0 0.5,0 0.7,0 1.1,0 2.2,-0.2 3.3,-0.4 5.3,-1.4 9.2,-6.3 9.2,-12 0,-0.1 0,-0.2 0,-0.3 -0.1,-3.4 -1.5,-6.5 -3.8,-8.6 1.6,0 3.2,0.3 4.7,0.7 2.9,0.7 5.5,2.1 7.8,3.9 0,0 0.1,0.1 0.1,0.1 -0.1,0.4 0,1.1 0,1.7 z"
   id="path1400" /> <g
   id="g1404"> <path
   style="fill:#f7941d"
   inkscape:connector-curvature="0"
   class="st1"
   d="m 50.9,25.7 c 0,0.2 0,0.5 0,0.7 0,4.4 -2,8.2 -2,8.2 -0.2,0.4 -0.4,0.7 -0.6,1.1 -1.5,2.7 -3.6,5 -6.1,6.8 -3.5,2.6 -7.7,3.9 -12.1,3.9 -4.8,0 -9.4,-1.7 -13.1,-4.7 -4.8,-3.9 -7.6,-9.8 -7.6,-16 0,-6.2 2.8,-12.1 7.6,-16 l 0.2,-0.2 c 0,0.1 -0.1,0.1 -0.1,0.2 0,0.1 -0.1,0.1 -0.1,0.2 -4.7,3.9 -7.4,9.6 -7.4,15.8 0,6.2 2.7,11.9 7.5,15.9 3.6,3 8.3,4.6 13,4.6 4.3,0 8.5,-1.3 12,-3.9 2.5,-1.8 4.5,-4.1 6,-6.8 0.2,-0.4 0.4,-0.7 0.5,-1.1 0,0 2,-3.7 2,-8.1 0,-0.2 0,-0.5 0,-0.7 0,-0.7 0,-1.3 -0.1,-2 v -0.1 c 0,0 0.1,0.1 0.1,0.1 0,0 0.1,0.1 0.1,0.1 0.2,0.8 0.2,1.4 0.2,2 z"
   id="path1402" /> </g> </g></g></svg>