<svg xmlns="http://www.w3.org/2000/svg" height="800" width="1200" viewBox="-38.5197 -31.3345 333.8374 188.007"><path d="M167.416 124.78c-.095-.248.323-1.475.503-1.81 1.672-3.126 6.653-19.905 7.658-25.8.418-2.45 1.229-5.082 1.566-5.082.132 0 .84-.57 1.572-1.267.732-.697 2.22-2.002 3.307-2.901l3.246-2.684c1.827-1.51 3.343-2.582 4.525-3.204.568-.298 1.033-.648 1.033-.777 0-.265 6.095-4.411 6.485-4.411.138 0 .665-.349 1.172-.775 2.246-1.89 15.99-8.804 18.46-9.288.57-.111 1.322-.384 1.672-.605.982-.623 7.896-2.539 11.433-3.167 5.217-.928 12.616-.637 13.958.547.166.147.502.267.748.267.546 0 3.529 1.476 4.188 2.072a263.5 263.5 0 002.037 1.8c4.502 3.95 6.496 11.259 5.616 20.582-.382 4.042-1.393 10.629-1.962 12.783-.464 1.759-1.198 1.53-2.513-.783-3.484-6.13-9.587-9.777-16.36-9.777-2.627 0-8.458.851-12.064 1.762-17.232 4.35-35.136 14.178-49.957 27.425-1.973 1.764-6.024 5.157-6.19 5.157-.166 0 2.898-2.89 2.898-2.635 0 .256-.274.76-1.414 1.644-.769.597-1.41 1.466-1.617.927zM6.466 94.307c-2.454-.76-4.707-3.818-5.728-7.777C.233 84.574.15 82.458.04 68.924c-.068-8.46-.047-15.69.047-16.067.251-.999 1.746-2.541 3.198-3.3 1.231-.643 1.68-.661 16.594-.661h15.328v-.99c0-1.712-1.488-3.985-3.144-4.8-1.412-.697-1.778-.722-10.989-.769-5.24-.026-9.777-.062-10.083-.079-.982-.056-.742-2.275.362-3.332 1.31-1.256 2.528-1.429 10.244-1.45 9.92-.028 13.255.553 15.832 2.759 1.893 1.62 2.853 3.809 2.856 6.517l.004 2.144h5.988l.19-1.826c.48-4.61 2.032-7.008 5.414-8.366l1.905-.765H82.9l.767.891c.532.619.766 1.277.766 2.152 0 1.059-.129 1.31-.81 1.568-.478.182-6.444.31-14.53.313-7.545.003-14.265.134-14.933.291-2.095.494-3.391 2.254-3.391 4.606v1.107l14.847.094 14.848.094 1.27.832c1.786 1.17 2.309 1.84 3.025 3.878.592 1.683.627 2.665.627 17.315 0 17.223.09 16.51-2.042 16.11-1.17-.219-2.612-1.638-2.874-2.828-.083-.38-.19-3.263-.238-6.407-.084-5.596-.104-5.744-.938-7.027-2.519-3.87-4.966-3.522-7.151 1.019-.613 1.272-1.317 2.391-1.565 2.486-.59.227-1.706-.905-1.706-1.73 0-.762-1.101-3.016-1.856-3.8-1.44-1.497-3.126-1.53-4.833-.093-1.501 1.263-1.986 2.506-2.017 5.175-.022 1.865.113 2.624.623 3.494.838 1.43 2.93 2.592 4.712 2.619 1.84.028 2.241.65 1.742 2.703-.575 2.363-1.037 2.717-3.308 2.537-4.075-.325-7.105-3.189-8.391-7.931-.586-2.162-.282-6.61.61-8.925.964-2.5 3.496-5.056 5.512-5.564 3.528-.888 6.116-.232 8.175 2.073l1.085 1.213.838-1.585c.714-1.35 1.046-1.647 2.229-2 1.78-.53 3.17-.15 4.883 1.339l1.27 1.103.097-3.557c.122-4.489-.105-6.046-1.042-7.136l-.746-.867-13.723-.09-13.723-.089.255.884c.14.485.305 8.06.365 16.834l.11 15.95-.78.196c-1.497.375-3.397-.745-4.076-2.403-.2-.486-.364-6.196-.425-14.738-.07-9.896-.21-14.211-.48-14.862-.752-1.815-.959-1.84-14.963-1.841H18.216l.07 11.671c.038 6.42.158 12.841.265 14.27.186 2.476.236 2.613 1.068 2.903.876.305 5.069-.39 5.425-.898.088-.125.614-.46 1.17-.745 2.088-1.07 5.014-3.89 5.945-5.73.764-1.51.877-2.033.706-3.277-.455-3.325-2.284-4.403-6.524-3.845-.679.09-.817-.083-1.192-1.487-.635-2.375-.405-2.881 1.517-3.342.907-.218 2.588-.321 3.806-.234 1.944.14 2.37.298 3.898 1.452.944.713 2.055 1.84 2.468 2.504.676 1.088.751 1.573.751 4.86 0 3.394-.066 3.787-.928 5.544-1.457 2.966-4.953 6.21-8.547 7.93-2.806 1.342-3.87 1.658-7.992 2.37-3.95.682-4.9.66-5.82-.131l-.85-.73-.158-15.51c-.116-11.312-.263-15.692-.544-16.182-.618-1.077-1.947-1.427-5.033-1.327l-2.84.093L4.79 66.84c-.107 15.918.13 19.262 1.506 21.26 1.16 1.688 2.188 2.082 5.42 2.082 2.955 0 3.434.34 2.75 1.958-.81 1.914-1.57 2.322-4.46 2.396-1.423.036-3.016-.067-3.54-.23zM178.63 70.095c-.091-.742-.252-2.565-.358-4.05-.291-4.103-1.035-9.119-2.231-15.054-.596-2.952-1.003-5.683-.907-6.07.28-1.11 7.273-7.776 11.74-11.189 4.699-3.589 7.562-5.414 11.82-7.534 4.248-2.115 8.853-3.723 12.775-4.46 4.165-.784 10.596-.814 13.339-.063 4.747 1.3 8.756 3.867 12.903 8.264 2.576 2.732 6.152 7.38 6.152 8 0 .199.4.81.889 1.358.906 1.014 5.972 11.249 6.156 12.345.197 1.179-.936-.211-2.47-1.978-1.617-1.86-4.41-4.019-6.686-5.166-5.727-2.885-13.983-2.655-23.137.644-1.922.693-3.78 1.344-4.13 1.447-.348.103-.706.277-.793.386-.087.11-1.278.74-2.645 1.4-7.512 3.625-18.813 11.502-27.595 19.234-2.396 2.11-4.424 3.836-4.506 3.836-.083 0-.225-.608-.316-1.35zM167.786 25.35c-.714-2.25-4.406-9.224-7.608-14.372-1.048-1.684-2.143-3.5-2.432-4.033-.29-.534-.742-1.139-1.005-1.344-.262-.205-.774-.942-1.138-1.636-.63-1.201-.635-1.29-.108-1.802.353-.343 1.997-.793 4.524-1.238 4.969-.875 16.742-1.218 21.9-.638 7.773.875 15.472 2.618 20.42 4.624.843.342.664 1.073-.318 1.3-2.66.61-6.794 1.905-9.222 2.887a437.441 437.441 0 01-3.72 1.488c-1.962.762-9.267 5.334-10.798 6.76-.35.324-1.511 1.346-2.582 2.269-1.07.923-2.853 2.744-3.962 4.047-1.588 1.866-2.198 2.368-2.875 2.368-.6 0-.925-.206-1.076-.68z" fill="#6ac537"/><path d="M167.104 125.202c.111-.262.29-.726.398-1.032.21-.596.615-.725.887-.284.093.15-.204.614-.66 1.032-.455.418-.736.546-.625.284z" fill="#6ac537"/><path d="M98.202 87.648c-.376-.154-.801-.468-.946-.699-.145-.23-.217-6.998-.16-15.04.107-15.324.013-16.647-1.26-17.802-.593-.537-1.285-.618-6.036-.706-4.259-.08-5.367-.19-5.367-.532 0-1.103-2.54-3.215-4.446-3.697-.437-.11 8.016-.218 18.783-.239 15.35-.029 19.607-.123 19.715-.434.334-.967-.474-3.16-1.598-4.342-1.512-1.589-2.127-1.665-13.923-1.725l-9.162-.047-.107-.756c-.212-1.502.242-2.745 1.211-3.317.801-.473 2.094-.584 8.653-.738 10.877-.256 14.403.318 17.224 2.8 1.914 1.686 2.345 2.587 2.826 5.915l.399 2.766h38.899l-.195.794c-.627 2.555-2.073 3.274-6.911 3.436-3.56.119-3.733.155-3.543.754.11.347.294 1.282.408 2.078l.208 1.448 1.938.53c3.01.824 4.76 2.013 6.167 4.189 1.913 2.96 2.357 6.428 1.127 8.797-.527 1.015-1.858 2.026-3.337 2.536-1.527.527-1.81.134-1.346-1.872.513-2.223.468-4.063-.145-5.961-.632-1.956-1.853-3.193-3.402-3.444l-1.161-.188V87.72l-1.016-.203c-1.35-.27-2.427-1.007-3.045-2.084-.471-.821-.691-.898-3.105-1.084-3.306-.254-8.502-1.291-10.723-2.141-4.846-1.855-7.877-7.253-7.448-13.262.194-2.703 1.28-4.824 3.584-7.004 1.322-1.25 2.136-1.71 4.156-2.347 2.32-.732 6.55-1.49 11.007-1.973 1.955-.212 1.975-.24 1.529-2.161-.517-2.226.924-2.099-23.794-2.11-21.175-.01-22.33.02-22.073.546.15.306.314 6.8.364 14.433.09 13.6.105 13.88.734 14.08.697.222 3.29-.316 5.034-1.043 2.952-1.232 6.542-4.29 7.704-6.562.9-1.76.703-4.904-.377-6.054-1.067-1.135-2.913-1.58-4.7-1.13-.78.197-1.467.309-1.527.249-.235-.235-1.045-4.173-.904-4.4.297-.481 3.825-.99 5.778-.833 2.17.174 3.54.882 5.408 2.8 2.28 2.338 2.649 7.607.799 11.406-2.02 4.146-6.319 7.617-11.53 9.308-3.543 1.15-9.213 1.968-10.368 1.496z" fill="#717476"/><path d="M147.877 70.73l.084-8.495h-1.869c-2.163 0-6.856.756-8.957 1.443-1.747.57-3.988 2.739-4.432 4.287-.41 1.432-.395 3.33.04 4.909.547 1.98 3.157 4.392 5.475 5.06 2.182.628 7.256 1.419 8.622 1.344l.952-.052z" fill="#fff"/><path d="M178.44 70.968c0-.436.054-.794.121-.794s.19.358.274.794c.083.437.029.794-.122.794-.15 0-.273-.357-.273-.794z" fill="#717476"/><path d="M250.066 51c-1.054-1.666-1.123-2.043-.328-1.79.227.072 1.723 3.483 1.578 3.6-.038.03-.6-.785-1.25-1.81z" fill="#6ac537"/><path d="M10.521 42.352c.106-.105.38-.117.609-.025.253.102.178.177-.192.192-.335.014-.522-.061-.417-.167z" fill="#717476"/></svg>